<svg width="57" height="57" viewBox="0 0 57 57" fill="none" xmlns="http://www.w3.org/2000/svg">
<g clip-path="url(#clip0_14_69)">
<path fill-rule="evenodd" clip-rule="evenodd" d="M5.49506 28.0369C5.75008 28.4776 6.08815 29.0392 6.50697 29.6876C7.58268 31.3533 9.17572 33.5683 11.2439 35.7743C15.4229 40.2319 21.2655 44.3702 28.5 44.3702C35.7345 44.3702 41.5771 40.2319 45.7561 35.7743C47.8243 33.5683 49.4173 31.3533 50.493 29.6876C50.9118 29.0392 51.2499 28.4776 51.5049 28.0369C51.2499 27.5962 50.9118 27.0346 50.493 26.3861C49.4173 24.7205 47.8243 22.5055 45.7561 20.2994C41.5771 15.8418 35.7345 11.7035 28.5 11.7035C21.2655 11.7035 15.4229 15.8418 11.2439 20.2994C9.17572 22.5055 7.58268 24.7205 6.50697 26.3861C6.08815 27.0346 5.75008 27.5962 5.49506 28.0369ZM54.1667 28.0369C56.2537 26.9934 56.2533 26.9926 56.2528 26.9917L56.2491 26.9842L56.241 26.9683L56.2145 26.9165C56.1923 26.8732 56.1608 26.8126 56.1202 26.7359C56.0391 26.5825 55.9213 26.3644 55.7674 26.0908C55.4598 25.544 55.007 24.7737 54.4132 23.8543C53.2285 22.0199 51.4674 19.5683 49.1606 17.1077C44.5895 12.2319 37.5989 7.03687 28.5 7.03687C19.4011 7.03687 12.4105 12.2319 7.83941 17.1077C5.53261 19.5683 3.77149 22.0199 2.58678 23.8543C1.99298 24.7737 1.54018 25.544 1.2326 26.0908C1.07872 26.3644 0.960927 26.5825 0.879758 26.7359C0.839166 26.8126 0.807709 26.8732 0.785455 26.9165L0.758977 26.9683L0.750924 26.9842L0.748197 26.9897C0.747768 26.9905 0.746337 26.9934 2.83333 28.0369L0.746337 26.9934C0.417888 27.6503 0.417888 28.4235 0.746337 29.0804L2.83333 28.0369C0.746337 29.0804 0.745908 29.0795 0.746337 29.0804L0.750924 29.0895L0.758977 29.1054L0.785455 29.1573C0.807709 29.2006 0.839166 29.2611 0.879758 29.3378C0.960927 29.4912 1.07872 29.7093 1.2326 29.9829C1.54018 30.5297 1.99298 31.3 2.58678 32.2194C3.77149 34.0538 5.53261 36.5055 7.83941 38.9661C12.4105 43.8418 19.4011 49.0369 28.5 49.0369C37.5989 49.0369 44.5895 43.8418 49.1606 38.9661C51.4674 36.5055 53.2285 34.0538 54.4132 32.2194C55.007 31.3 55.4598 30.5297 55.7674 29.9829C55.9213 29.7093 56.0391 29.4912 56.1202 29.3378C56.1608 29.2611 56.1923 29.2006 56.2145 29.1573L56.241 29.1054L56.2491 29.0895L56.2518 29.0841C56.2522 29.0832 56.2537 29.0804 54.1667 28.0369ZM54.1667 28.0369L56.2537 29.0804C56.5821 28.4235 56.5813 27.6486 56.2528 26.9917L54.1667 28.0369Z" fill="#626262"/>
<path fill-rule="evenodd" clip-rule="evenodd" d="M28.5001 23.3703C25.9228 23.3703 23.8334 25.4596 23.8334 28.0369C23.8334 30.6143 25.9228 32.7036 28.5001 32.7036C31.0774 32.7036 33.1667 30.6143 33.1667 28.0369C33.1667 25.4596 31.0774 23.3703 28.5001 23.3703ZM19.1667 28.0369C19.1667 22.8823 23.3454 18.7036 28.5001 18.7036C33.6547 18.7036 37.8334 22.8823 37.8334 28.0369C37.8334 33.1916 33.6547 37.3703 28.5001 37.3703C23.3454 37.3703 19.1667 33.1916 19.1667 28.0369Z" fill="#626262"/>
</g>
<defs>
<clipPath id="clip0_14_69">
<rect width="56" height="56" fill="white" transform="translate(0.5 0.0368652)"/>
</clipPath>
</defs>
</svg>
