<svg width="47" height="48" viewBox="0 0 47 48" fill="none" xmlns="http://www.w3.org/2000/svg">
<path d="M37.5 0.703491C35.6541 0.703491 33.8496 1.25088 32.3147 2.27644C30.7798 3.302 29.5836 4.75967 28.8771 6.46511C28.1707 8.17056 27.9859 10.0472 28.346 11.8577C28.7062 13.6682 29.5951 15.3312 30.9004 16.6365C32.2057 17.9418 33.8687 18.8307 35.6792 19.1908C37.4897 19.551 39.3663 19.3661 41.0717 18.6597C42.7772 17.9533 44.2348 16.757 45.2604 15.2221C46.286 13.6873 46.8334 11.8828 46.8334 10.0368C46.8334 7.56147 45.85 5.1875 44.0997 3.43716C42.3493 1.68682 39.9754 0.703491 37.5 0.703491ZM37.5 14.7035C36.577 14.7035 35.6748 14.4298 34.9074 13.917C34.1399 13.4042 33.5418 12.6754 33.1886 11.8227C32.8354 10.97 32.743 10.0316 32.923 9.1264C33.1031 8.22116 33.5475 7.38964 34.2002 6.73699C34.8528 6.08435 35.6844 5.63989 36.5896 5.45983C37.4948 5.27976 38.4332 5.37218 39.2859 5.72539C40.1386 6.0786 40.8674 6.67673 41.3802 7.44416C41.893 8.21159 42.1667 9.11385 42.1667 10.0368C42.1667 11.2745 41.675 12.4615 40.7999 13.3367C39.9247 14.2118 38.7377 14.7035 37.5 14.7035ZM30.5 42.7035H25.8334V38.0368C25.8334 37.418 25.5875 36.8245 25.1499 36.3869C24.7124 35.9493 24.1189 35.7035 23.5 35.7035C22.8812 35.7035 22.2877 35.9493 21.8501 36.3869C21.4125 36.8245 21.1667 37.418 21.1667 38.0368V42.7035H16.5V34.8168L24.55 30.7802C24.9348 30.5863 25.2584 30.2896 25.4849 29.923C25.7115 29.5565 25.8321 29.1344 25.8334 28.7035V19.3702C25.8334 18.7513 25.5875 18.1578 25.1499 17.7202C24.7124 17.2827 24.1189 17.0368 23.5 17.0368C22.8812 17.0368 22.2877 17.2827 21.8501 17.7202C21.4125 18.1578 21.1667 18.7513 21.1667 19.3702V27.2568L16.5 29.5902V14.7035C16.5 14.0847 16.2542 13.4912 15.8166 13.0536C15.379 12.616 14.7855 12.3702 14.1667 12.3702C13.5478 12.3702 12.9544 12.616 12.5168 13.0536C12.0792 13.4912 11.8334 14.0847 11.8334 14.7035V34.2568L7.16669 31.9235V26.3702C7.16669 25.7513 6.92085 25.1578 6.48327 24.7202C6.04568 24.2827 5.45219 24.0368 4.83335 24.0368C4.21452 24.0368 3.62102 24.2827 3.18344 24.7202C2.74585 25.1578 2.50002 25.7513 2.50002 26.3702V33.3702C2.50133 33.8011 2.62192 34.2232 2.84844 34.5897C3.07496 34.9563 3.39855 35.2529 3.78335 35.4468L11.8334 39.4835V42.7035H2.50002C1.88118 42.7035 1.28769 42.9493 0.850104 43.3869C0.41252 43.8245 0.166687 44.418 0.166687 45.0368C0.166687 45.6557 0.41252 46.2492 0.850104 46.6867C1.28769 47.1243 1.88118 47.3702 2.50002 47.3702H30.5C31.1189 47.3702 31.7124 47.1243 32.1499 46.6867C32.5875 46.2492 32.8334 45.6557 32.8334 45.0368C32.8334 44.418 32.5875 43.8245 32.1499 43.3869C31.7124 42.9493 31.1189 42.7035 30.5 42.7035Z" fill="#626262"/>
</svg>
