<svg width="34" height="51" viewBox="0 0 34 51" fill="none" xmlns="http://www.w3.org/2000/svg">
<path d="M16.8334 0.328491C13.6214 0.332447 10.4819 1.26644 7.80752 3.01366C5.13317 4.76088 3.04271 7.24376 1.79761 10.1517C0.552511 13.0597 0.20804 16.2637 0.807286 19.363C1.40653 22.4622 2.92289 25.3191 5.1667 27.5764V48.4535C5.16791 48.8441 5.27077 49.228 5.46552 49.5686C5.66027 49.9092 5.94044 50.1953 6.27943 50.3997C6.61842 50.604 7.00497 50.7199 7.40237 50.7362C7.79977 50.7526 8.19483 50.6689 8.55004 50.4931L16.8334 46.4368L25.1167 50.4931C25.4418 50.6567 25.8014 50.743 26.1667 50.7452C26.6036 50.7465 27.032 50.6274 27.4034 50.4014C27.7396 50.195 28.0168 49.9078 28.2087 49.567C28.4006 49.2262 28.5008 48.8429 28.5 48.4535V27.5764C30.7438 25.3191 32.2602 22.4622 32.8595 19.363C33.4587 16.2637 33.1142 13.0597 31.8691 10.1517C30.624 7.24376 28.5336 4.76088 25.8592 3.01366C23.1849 1.26644 20.0454 0.332447 16.8334 0.328491ZM23.8334 44.741L17.8834 41.8306C17.5577 41.6694 17.1981 41.5854 16.8334 41.5854C16.4687 41.5854 16.1091 41.6694 15.7834 41.8306L9.83337 44.741V30.8535C11.3102 31.5384 12.8832 32.0019 14.5 32.2285V34.7035C14.5 35.3113 14.7459 35.8942 15.1835 36.3239C15.621 36.7537 16.2145 36.9952 16.8334 36.9952C17.4522 36.9952 18.0457 36.7537 18.4833 36.3239C18.9209 35.8942 19.1667 35.3113 19.1667 34.7035V32.2285C20.7835 32.0019 22.3566 31.5384 23.8334 30.8535V44.741ZM16.8334 27.8285C14.5259 27.8285 12.2703 27.1565 10.3517 25.8974C8.43314 24.6384 6.9378 22.8488 6.05477 20.7551C5.17175 18.6613 4.94071 16.3574 5.39087 14.1347C5.84104 11.912 6.95218 9.87037 8.58379 8.26789C10.2154 6.66542 12.2942 5.57412 14.5573 5.13199C16.8204 4.68987 19.1662 4.91678 21.298 5.78404C23.4298 6.65129 25.2519 8.11994 26.5338 10.0042C27.8158 11.8886 28.5 14.1039 28.5 16.3702C28.5 19.4091 27.2709 22.3236 25.0829 24.4724C22.895 26.6213 19.9276 27.8285 16.8334 27.8285Z" fill="#626262"/>
</svg>
