<svg width="48" height="46" viewBox="0 0 48 46" fill="none" xmlns="http://www.w3.org/2000/svg">
<path d="M47.5 17.6004C47.3527 17.1736 47.0846 16.7987 46.7285 16.5213C46.3723 16.2438 45.9432 16.0756 45.4934 16.0371L32.2167 14.1004L26.2667 2.03708C26.0756 1.64258 25.7773 1.30988 25.4059 1.07709C25.0345 0.844293 24.605 0.720825 24.1667 0.720825C23.7284 0.720825 23.2989 0.844293 22.9275 1.07709C22.5561 1.30988 22.2577 1.64258 22.0667 2.03708L16.1167 14.0771L2.84002 16.0371C2.40817 16.0985 2.00218 16.2797 1.6681 16.5601C1.33403 16.8406 1.08526 17.2091 0.95002 17.6237C0.826225 18.029 0.815116 18.4603 0.917885 18.8714C1.02065 19.2824 1.23342 19.6578 1.53335 19.9571L11.17 29.2904L8.83669 42.5437C8.74248 42.9834 8.77731 43.4409 8.93698 43.8612C9.09666 44.2816 9.37437 44.6468 9.73672 44.913C10.0991 45.1792 10.5306 45.3351 10.9795 45.3618C11.4283 45.3886 11.8753 45.2851 12.2667 45.0637L24.1667 38.8337L36.0667 45.0637C36.3942 45.2485 36.764 45.345 37.14 45.3437C37.6343 45.3455 38.1163 45.1903 38.5167 44.9004C38.8787 44.6411 39.1589 44.2836 39.3243 43.8701C39.4897 43.4567 39.5333 43.0045 39.45 42.5671L37.1167 29.3137L46.7534 19.9804C47.0902 19.695 47.3392 19.3199 47.4714 18.8986C47.6036 18.4773 47.6135 18.0271 47.5 17.6004ZM33.15 26.9337C32.88 27.196 32.6774 27.5198 32.5595 27.8773C32.4417 28.2349 32.4121 28.6156 32.4734 28.9871L34.1534 38.7871L25.38 34.1204C25.039 33.9517 24.6638 33.864 24.2834 33.864C23.9029 33.864 23.5277 33.9517 23.1867 34.1204L14.4134 38.7871L16.0934 28.9871C16.1546 28.6156 16.125 28.2349 16.0072 27.8773C15.8893 27.5198 15.6868 27.196 15.4167 26.9337L8.41669 19.9337L18.24 18.5104C18.618 18.4578 18.9773 18.3133 19.2865 18.0896C19.5957 17.8659 19.8453 17.5697 20.0134 17.2271L24.1667 8.33708L28.5534 17.2504C28.7214 17.593 28.971 17.8892 29.2802 18.1129C29.5894 18.3367 29.9487 18.4812 30.3267 18.5337L40.15 19.9571L33.15 26.9337Z" fill="#626262"/>
</svg>
