<svg width="48" height="35" viewBox="0 0 48 35" fill="none" xmlns="http://www.w3.org/2000/svg">
<path d="M35.5 9.6899C36.423 9.6899 37.3253 9.41621 38.0927 8.90343C38.8601 8.39065 39.4583 7.66181 39.8115 6.80909C40.1647 5.95637 40.2571 5.01806 40.077 4.11281C39.897 3.20757 39.4525 2.37605 38.7999 1.7234C38.1472 1.07076 37.3157 0.626303 36.4105 0.446238C35.5052 0.266174 34.5669 0.358589 33.7142 0.711798C32.8615 1.06501 32.1326 1.66315 31.6198 2.43057C31.1071 3.198 30.8334 4.10026 30.8334 5.02324C30.8334 6.26091 31.325 7.4479 32.2002 8.32307C33.0754 9.19824 34.2624 9.6899 35.5 9.6899ZM2.1567 20.5166C2.61906 20.6644 3.06479 20.8599 3.4867 21.0999C4.93787 21.9488 6.58881 22.3962 8.27003 22.3962C9.95126 22.3962 11.6022 21.9488 13.0534 21.0999C13.9659 20.589 14.9942 20.3207 16.04 20.3207C17.0858 20.3207 18.1142 20.589 19.0267 21.0999L19.5167 21.3332C20.9326 22.0225 22.4955 22.3552 24.0693 22.3024C25.6432 22.2495 27.1803 21.8127 28.5467 21.0299C29.4592 20.519 30.4875 20.2507 31.5334 20.2507C32.5792 20.2507 33.6075 20.519 34.52 21.0299C35.9988 21.875 37.6702 22.325 39.3734 22.3366C41.0168 22.3195 42.6267 21.8688 44.04 21.0299C44.4619 20.7899 44.9077 20.5944 45.37 20.4466C45.7149 20.4228 46.0502 20.3228 46.3517 20.1536C46.6531 19.9844 46.9132 19.7504 47.1132 19.4684C47.3131 19.1864 47.4479 18.8635 47.5078 18.523C47.5677 18.1826 47.5512 17.8331 47.4595 17.4998C47.3678 17.1665 47.2032 16.8577 46.9776 16.5958C46.752 16.3339 46.471 16.1254 46.1549 15.9854C45.8388 15.8454 45.4956 15.7773 45.15 15.7862C44.8045 15.795 44.4652 15.8806 44.1567 16.0366C43.3425 16.2893 42.5597 16.6337 41.8234 17.0632C41.0785 17.4933 40.2335 17.7197 39.3734 17.7197C38.5132 17.7197 37.6683 17.4933 36.9234 17.0632C35.307 16.1514 33.4826 15.6723 31.6267 15.6723C29.7708 15.6723 27.9464 16.1514 26.33 17.0632C26.1105 17.1705 25.8845 17.2641 25.6534 17.3432L29.2934 13.7032C29.3768 13.5952 29.4473 13.4777 29.5034 13.3532C29.6089 13.2385 29.7027 13.1134 29.7834 12.9799C29.7943 12.8323 29.7943 12.6841 29.7834 12.5366C29.7966 12.3891 29.7966 12.2407 29.7834 12.0932C29.7945 11.9535 29.7945 11.813 29.7834 11.6732C29.7966 11.5258 29.7966 11.3774 29.7834 11.2299C29.7143 11.0927 29.6364 10.9602 29.55 10.8332C29.4895 10.6988 29.411 10.5732 29.3167 10.4599L22.1534 2.6899C21.9649 2.48444 21.7442 2.31106 21.5 2.17657C21.3374 2.15504 21.1727 2.15504 21.01 2.17657C20.8787 2.15523 20.7447 2.15523 20.6134 2.17657C20.3028 2.05159 19.9665 2.00355 19.6334 2.03657L11.3734 5.11657C10.7918 5.32718 10.3177 5.76008 10.0552 6.32012C9.79264 6.88016 9.76322 7.52152 9.97336 8.10324C10.184 8.68479 10.6169 9.15893 11.1769 9.42144C11.737 9.68396 12.3783 9.71338 12.96 9.50324L19.7967 7.00657L24.4634 11.9532L20.03 16.3866C18.5446 15.8091 16.9497 15.5682 15.36 15.6812C13.7704 15.7942 12.2255 16.2582 10.8367 17.0399C10.0918 17.47 9.24683 17.6964 8.3867 17.6964C7.52657 17.6964 6.68159 17.47 5.9367 17.0399C5.20034 16.6104 4.41754 16.2659 3.60336 16.0132C3.30482 15.9018 2.98661 15.8528 2.66838 15.8691C2.35014 15.8854 2.03862 15.9667 1.75301 16.108C1.4674 16.2493 1.21376 16.4476 1.00773 16.6907C0.8017 16.9338 0.64764 17.2165 0.555052 17.5214C0.462463 17.8263 0.433308 18.1469 0.469383 18.4635C0.505458 18.7801 0.606 19.086 0.764809 19.3622C0.923618 19.6385 1.13733 19.8793 1.39277 20.0698C1.6482 20.2603 1.93995 20.3965 2.25003 20.4699L2.1567 20.5166ZM44.1567 27.7266C43.3425 27.9793 42.5597 28.3237 41.8234 28.7532C41.0785 29.1833 40.2335 29.4097 39.3734 29.4097C38.5132 29.4097 37.6683 29.1833 36.9234 28.7532C35.307 27.8414 33.4826 27.3623 31.6267 27.3623C29.7708 27.3623 27.9464 27.8414 26.33 28.7532C25.5788 29.1897 24.7255 29.4196 23.8567 29.4196C22.9879 29.4196 22.1346 29.1897 21.3834 28.7532C19.767 27.8414 17.9426 27.3623 16.0867 27.3623C14.2308 27.3623 12.4064 27.8414 10.79 28.7532C10.0451 29.1833 9.20016 29.4097 8.34003 29.4097C7.4799 29.4097 6.63492 29.1833 5.89003 28.7532C5.15368 28.3237 4.37087 27.9793 3.5567 27.7266C3.25815 27.6152 2.93995 27.5661 2.62171 27.5824C2.30348 27.5987 1.99195 27.68 1.70635 27.8213C1.42074 27.9626 1.1671 28.1609 0.961066 28.404C0.755033 28.6471 0.600974 28.9298 0.508385 29.2347C0.415797 29.5396 0.386641 29.8603 0.422716 30.1769C0.458792 30.4935 0.559333 30.7993 0.718142 31.0756C0.876952 31.3518 1.09066 31.5926 1.3461 31.7831C1.60154 31.9736 1.89329 32.1098 2.20336 32.1832C2.66572 32.331 3.11146 32.5265 3.53336 32.7666C4.98453 33.6155 6.63547 34.0629 8.3167 34.0629C9.99792 34.0629 11.6489 33.6155 13.1 32.7666C14.0125 32.2556 15.0409 31.9873 16.0867 31.9873C17.1325 31.9873 18.1609 32.2556 19.0734 32.7666C20.5371 33.6035 22.1939 34.0438 23.88 34.0438C25.5661 34.0438 27.223 33.6035 28.6867 32.7666C29.5992 32.2556 30.6275 31.9873 31.6734 31.9873C32.7192 31.9873 33.7475 32.2556 34.66 32.7666C36.1388 33.6117 37.8102 34.0617 39.5134 34.0732C41.1568 34.0562 42.7667 33.6054 44.18 32.7666C44.6019 32.5265 45.0477 32.331 45.51 32.1832C45.8042 32.0944 46.078 31.9484 46.3157 31.7538C46.5535 31.5591 46.7506 31.3195 46.8958 31.0487C47.0409 30.7778 47.1313 30.4811 47.1618 30.1753C47.1923 29.8695 47.1622 29.5607 47.0734 29.2666C46.9845 28.9724 46.8386 28.6986 46.6439 28.4609C46.4492 28.2231 46.2097 28.026 45.9388 27.8808C45.668 27.7357 45.3712 27.6453 45.0654 27.6148C44.7596 27.5843 44.4509 27.6144 44.1567 27.7032V27.7266Z" fill="#626262"/>
</svg>
