<svg width="48" height="48" viewBox="0 0 48 48" fill="none" xmlns="http://www.w3.org/2000/svg">
<path d="M47.5 45.0368C47.5 44.418 47.2542 43.8245 46.8166 43.3869C46.379 42.9493 45.7856 42.7035 45.1667 42.7035L38.1667 42.7035L38.1667 17.0368C38.1667 16.418 37.9209 15.8245 37.4833 15.3869C37.0457 14.9493 36.4522 14.7035 35.8334 14.7035L28.8334 14.7035L28.8334 3.03682C28.8334 2.41799 28.5876 1.82449 28.15 1.38691C27.7124 0.949323 27.1189 0.70349 26.5 0.70349L12.5 0.70349C11.8812 0.70349 11.2877 0.949322 10.8501 1.38691C10.4125 1.82449 10.1667 2.41798 10.1667 3.03682L10.1667 42.7035L3.16671 42.7035C2.54787 42.7035 1.95438 42.9493 1.5168 43.3869C1.07921 43.8245 0.833377 44.418 0.833377 45.0368C0.833377 45.6557 1.07921 46.2492 1.5168 46.6867C1.95438 47.1243 2.54787 47.3702 3.16671 47.3702L45.1667 47.3702C45.7856 47.3702 46.379 47.1243 46.8166 46.6867C47.2542 46.2492 47.5 45.6557 47.5 45.0368ZM14.8334 42.7035L14.8334 5.37016L24.1667 5.37016L24.1667 42.7035L14.8334 42.7035ZM28.8334 42.7035L28.8334 19.3702L33.5 19.3702L33.5 42.7035L28.8334 42.7035Z" fill="#626262"/>
</svg>
