<svg width="35" height="25" viewBox="0 0 35 25" fill="none" xmlns="http://www.w3.org/2000/svg">
<path d="M20.6981 24.3202V12.6754C20.6981 9.5024 21.9198 6.89927 24.363 4.86605C26.8062 2.80204 30.1157 1.43116 34.2914 0.753418V5.92887C33.0032 6.20613 31.9592 6.54499 31.1596 6.94547C30.36 7.34596 29.7381 7.82346 29.2939 8.37797C28.8497 8.93248 28.5609 9.57941 28.4276 10.3188C28.2944 11.0273 28.2277 11.8129 28.2277 12.6754V13.9231H34.2914V24.3202H20.6981ZM0.441528 24.3202V12.6754C0.441528 9.5024 1.66315 6.89927 4.10638 4.86605C6.54961 2.80204 9.85908 1.43116 14.0348 0.753418V5.92887C12.7465 6.20613 11.7026 6.54499 10.903 6.94547C10.1034 7.34596 9.48149 7.82346 9.03727 8.37797C8.63746 8.93248 8.34872 9.57941 8.17103 10.3188C8.03776 11.0273 7.97113 11.8129 7.97113 12.6754V13.9231H14.0348V24.3202H0.441528Z" fill="black"/>
</svg>
